<svg xmlns="http://www.w3.org/2000/svg" width="233" height="154" viewBox="0 0 233 154">
  <metadata><?xpacket begin="﻿" id="W5M0MpCehiHzreSzNTczkc9d"?>
<x:xmpmeta xmlns:x="adobe:ns:meta/" x:xmptk="Adobe XMP Core 5.6-c138 79.159824, 2016/09/14-01:09:01        ">
   <rdf:RDF xmlns:rdf="http://www.w3.org/1999/02/22-rdf-syntax-ns#">
      <rdf:Description rdf:about=""/>
   </rdf:RDF>
</x:xmpmeta>
                                                                                                    
                                                                                                    
                                                                                                    
                                                                                                    
                                                                                                    
                                                                                                    
                                                                                                    
                                                                                                    
                                                                                                    
                                                                                                    
                                                                                                    
                                                                                                    
                                                                                                    
                                                                                                    
                                                                                                    
                                                                                                    
                                                                                                    
                                                                                                    
                                                                                                    
                                                                                                    
                           
<?xpacket end="w"?></metadata>
<defs>
    <style>
      .cls-1 {
        stroke: #000;
        stroke-width: 1px;
        fill-rule: evenodd;
      }
    </style>
  </defs>
  <path class="cls-1" d="M2506,4913.49a16.36,16.36,0,0,0-3.33-10.05l-18.38-23.53a15.828,15.828,0,0,0-12.45-5.91,15.267,15.267,0,0,0-8.13,2.28l-17.92,11.16a16.416,16.416,0,0,1-8.24,2,14.866,14.866,0,0,1-6.32-1.24l-17.55-8.5a20.971,20.971,0,0,0-9.16-1.93,22.8,22.8,0,0,0-12.88,3.71l-2.05,1.44c-1.64-.82-4.14-2.06-6.97-3.47a26.364,26.364,0,0,0-11.43-2.36,27.408,27.408,0,0,0-10.5,1.93l-11.95,5.1a24.52,24.52,0,0,1-16.22,0l-11.97-5.1a17.578,17.578,0,0,0-6.83-1.34,20.887,20.887,0,0,0-7.77,1.53,17.711,17.711,0,0,0-6.55,4.51l-21.79,24.41a14.18,14.18,0,0,0,1.39,20.24l20.32,17.34-9.64,10.07a14.379,14.379,0,0,0,.49,20.35l1.96,1.86a5.8,5.8,0,0,1,4.58,10.29,14.327,14.327,0,0,0,4.47,10.42h-0.01l1.96,1.87a14.544,14.544,0,0,0,15.62,2.82,14.229,14.229,0,0,0,4,6.97l1.96,1.86a14.5,14.5,0,0,0,17.99,1.55,14.156,14.156,0,0,0,3.76,6.18l1.96,1.87a14.536,14.536,0,0,0,20.44-.49l8.52-8.9,11.57,10.72a14.531,14.531,0,0,0,20.43-.74l1.85-1.98a14.349,14.349,0,0,0,3.24-5.86l4.48,4.14a14.531,14.531,0,0,0,20.44-.75l1.84-1.98a5.432,5.432,0,0,1,7.27-7.44,14.489,14.489,0,0,0,10.6-4.58l1.85-1.98a14.374,14.374,0,0,0,3.85-9.8,14.629,14.629,0,0,0-.4-3.22,14.353,14.353,0,0,0,8.67-4.4l1.85-1.98a14.4,14.4,0,0,0-.75-20.35l-3.46-3.19,31.19-34.51A16.46,16.46,0,0,0,2506,4913.49Zm-210.39,56.96a6.537,6.537,0,0,1-.22-9.25l19.74-20.62a6.622,6.622,0,0,1,9.3-.22l1.95,1.86s2.02,2.99,2.02,4.74a6.484,6.484,0,0,1-1.16,3.7c-0.07.07-21.32,22.22-21.32,22.22a6.611,6.611,0,0,1-8.35-.57Zm17.51,26.23a6.594,6.594,0,0,1-4.54-1.8l-1.96-1.86v-0.01a6.561,6.561,0,0,1-.22-9.25s26.32-27.41,26.54-27.67a6.586,6.586,0,0,1,9.08-.05l1.96,1.87h0a6.537,6.537,0,0,1,.22,9.25l-26.33,27.5A6.555,6.555,0,0,1,2313.12,4996.68Zm21.57,11.65a6.532,6.532,0,0,1-4.53-1.79l-1.97-1.87a6.51,6.51,0,0,1-.57-8.81l18.33-19.14a6.573,6.573,0,0,1,8.92.09l1.97,1.87h0a6.561,6.561,0,0,1,.22,9.25l-17.61,18.39A6.544,6.544,0,0,1,2334.69,5008.33Zm28.46,7.58a6.61,6.61,0,0,1-9.29.22l-1.96-1.86a6.537,6.537,0,0,1-.22-9.25l11.11-11.62a6.647,6.647,0,0,1,9.3-.22l1.97,1.87h0a6.548,6.548,0,0,1,.21,9.25Zm105.99-38.67-1.84,1.98a6.619,6.619,0,0,1-9.29.34l-31.05-28.74-5.37,5.76,33.24,30.81a6.546,6.546,0,0,1,.34,9.25l-1.84,1.98a6.631,6.631,0,0,1-9.28.34l-31.06-28.74-5.37,5.76,27.57,25.5a6.541,6.541,0,0,1,.27,9.16l-1.84,1.98a6.631,6.631,0,0,1-9.3.34l-27.51-25.41h0l-0.01-.01-5.35,5.77h0l0.11,0.1,13.77,12.72a6.477,6.477,0,0,1,.12,8.96l-1.84,1.98a6.594,6.594,0,0,1-9.27.34l-12-11.12a14.157,14.157,0,0,0-2.84-16.92l-1.97-1.87a14.388,14.388,0,0,0-9.96-3.96c-0.28,0-.56.06-0.83,0.08,0-.07.01-0.14,0.01-0.2,0.01-3.79-4.46-10.43-4.46-10.43l-1.97-1.86a5.559,5.559,0,0,1-6.42-8.48,14.327,14.327,0,0,0-4.47-10.42l-1.96-1.87a14.457,14.457,0,0,0-9.97-3.96c-0.42,0-.83.08-1.24,0.12a14.317,14.317,0,0,0-4.42-9.97v-0.01l-1.96-1.86a14.524,14.524,0,0,0-20.44.48l-4.66,4.87-20.65-17.62a6.328,6.328,0,0,1-.61-9.05l21.78-24.41a10.061,10.061,0,0,1,3.64-2.46,12.81,12.81,0,0,1,4.79-.94,9.527,9.527,0,0,1,3.72.7l11.96,5.1a32.17,32.17,0,0,0,22.44,0l11.96-5.1a19.452,19.452,0,0,1,7.39-1.29,18.659,18.659,0,0,1,7.89,1.52c1.13,0.56,2.2,1.09,3.2,1.59l-12.2,8.58a14.1,14.1,0,0,0-3.21,20v-0.01l1.61,2.17a15.735,15.735,0,0,0,12.59,6.17,15.288,15.288,0,0,0,7.88-2.15l7.29-4.38a11.974,11.974,0,0,1,6.05-1.48,12.681,12.681,0,0,1,7.13,2.01l20.18,14.47a202.731,202.731,0,0,1,15.85,12.94l23.35,21.6A6.557,6.557,0,0,1,2469.14,4977.24Zm26.91-57.96-31.11,34.41-14.12-13.06a209.781,209.781,0,0,0-16.61-13.56l-20.17-14.47a20.4,20.4,0,0,0-11.74-3.49,19.783,19.783,0,0,0-10.13,2.61l-7.29,4.38a7.505,7.505,0,0,1-3.8,1.02,7.877,7.877,0,0,1-6.26-3l-1.61-2.16h-0.01a6.265,6.265,0,0,1,1.44-8.9l21.56-15.16a15.1,15.1,0,0,1,8.33-2.27,13.525,13.525,0,0,1,5.71,1.13l17.55,8.51a22.492,22.492,0,0,0,9.76,2.03,24.045,24.045,0,0,0,12.42-3.2l17.93-11.16a7.375,7.375,0,0,1,3.95-1.09,7.954,7.954,0,0,1,6.21,2.89l18.39,23.53a8.568,8.568,0,0,1,1.67,5.22A8.726,8.726,0,0,1,2496.05,4919.28Z" transform="translate(-2273.5 -4873.5)"/>
</svg>
